<svg xmlns="http://www.w3.org/2000/svg" viewBox="0 0 245.88 166.38">
    <title>Asset 2</title>
    <g id="Layer_2" data-name="Layer 2">
        <g id="OBJECTS">
            <path
                d="M70.18,0h7.7a12,12,0,0,0-12,12V114.93a12,12,0,0,0,12,12h-7.7a12,12,0,0,1-12-12V12A12,12,0,0,1,70.18,0Z"
                style="fill:#b3becc" />
            <rect x="65.88" width="180" height="126.93" rx="12" style="fill:#d4d8df" />
            <rect x="87.28" y="15.54" width="137.21" height="96.75" rx="12"
                transform="translate(311.77 127.82) rotate(-180)" style="fill:#b3becc;opacity:0.28" />
            <path
                d="M139.56,132.73V64.27a2,2,0,0,1,2-2h3.06a2,2,0,0,0-2,2v68.46c0,1.12-21.42,28.63-20.29,28.63h-3.06C118.15,161.36,139.56,133.85,139.56,132.73Z"
                style="fill:#9eabba" />
            <path
                d="M110,158.11h14.27c5.12-7.31,18.35-24.5,18.35-25.38V64.27a2,2,0,0,1,2-2h30a2,2,0,0,1,2,2v70c0,.88,10.91,16.81,15.21,23.8h20.32a2.41,2.41,0,0,1,2.4,2.4V164a2.41,2.41,0,0,1-2.4,2.4H110a2.4,2.4,0,0,1-2.39-2.4v-3.47A2.4,2.4,0,0,1,110,158.11Z"
                style="fill:#b3becc" />
            <path
                d="M151,77.82a8.55,8.55,0,1,1,8.55,8.55A8.57,8.57,0,0,1,151,77.82Zm2,0a6.55,6.55,0,1,0,6.55-6.55A6.56,6.56,0,0,0,153,77.82Z"
                style="fill:#fff" />
            <rect x="128.44" y="32.06" width="70.94" height="3.2" transform="translate(327.81 67.31) rotate(-180)"
                style="fill:#b3becc" />
            <rect x="128.44" y="38.82" width="70.94" height="3.2" transform="translate(327.81 80.83) rotate(-180)"
                style="fill:#b3becc" />
            <path
                d="M0,159.14H102.23a0,0,0,0,1,0,0v2.94a4.05,4.05,0,0,1-4.05,4.05H4.05A4.05,4.05,0,0,1,0,162.08v-2.94a0,0,0,0,1,0,0Z"
                transform="translate(102.23 325.27) rotate(-180)" style="fill:#929ba5" />
            <path
                d="M5.45,156.43H96.77a0,0,0,0,1,0,0v2.62a3.62,3.62,0,0,1-3.62,3.62H9.07a3.62,3.62,0,0,1-3.62-3.62v-2.62a0,0,0,0,1,0,0Z"
                transform="translate(102.23 319.1) rotate(-180)" style="fill:#d4d8df" />
        </g>
    </g>
</svg>